<svg xmlns="http://www.w3.org/2000/svg" fill="none" viewBox="0 0 695.54 496.83">
<g id="carre logo">
<path id="second_text" d="M133.96 495.32C133.97 491.82 139 485.33 153.89 469.62C159.18 464.03 159.31 463.78 156.46 464.51C150.57 466.01 149.48 465.71 149.12 462.49C148.78 459.5 151.52 452.99 153.12 452.99C154.3 452.99 154.12 454.09 152.46 456.99C150.2 460.94 150.57 462.99 153.53 462.99C156.7 462.99 159.24 461.68 164.74 457.19C172.79 450.63 170.29 454.98 159.83 465.74C146.44 479.5 138.1 489.67 137.13 493.41C136.27 496.73 133.96 498.13 133.96 495.32ZM79.0002 476.63C78.9802 476.16 80.4002 473.96 82.1702 471.73L85.3802 467.68L83.1702 466.21C79.7502 463.95 80.4702 462.66 84.7502 463.34C88.4902 463.94 88.6102 463.86 93.7402 457C96.6002 453.18 99.0502 449.54 99.2002 448.9C99.3402 448.26 97.4802 447.23 95.0602 446.61C83.5402 443.67 88.5502 437.02 104.81 433.65C110.61 432.45 112.47 431.6 114.21 429.32C122.79 418.14 133.61 411.02 142.06 411C152.86 410.98 152.33 419.08 140.81 430.13L133.88 436.78L137.43 438.97C141.82 441.68 143.28 444.27 142.48 447.9C141.21 453.67 130.87 460.45 116.46 464.94C111.33 466.54 106.65 467.16 98.9602 467.26L88.4602 467.4L83.7502 472.44C81.1602 475.22 79.0202 477.1 79.0002 476.63ZM111.53 463.9C126.16 461.21 139.96 453.27 139.96 447.55C139.96 444.83 133.88 438.99 131.05 438.99C130.03 438.99 126.69 440.14 123.63 441.54C120.56 442.95 114.84 444.86 110.91 445.79L103.76 447.49L97.4402 455.65C93.9602 460.14 91.3802 464.08 91.7102 464.4C92.6802 465.38 105.2 465.06 111.53 463.9ZM106.36 439.99C109.52 435.6 109.72 434.99 108.01 434.99C104.33 434.99 95.4602 437.19 93.0902 438.69C91.1002 439.95 90.9502 440.4 92.0902 441.52C93.3502 442.73 98.8302 444.68 101.62 444.9C102.25 444.95 104.39 442.74 106.36 439.99ZM119.21 441.41C123.47 439.99 126.96 438.49 126.96 438.08C126.96 437.23 117.97 434.99 114.58 434.99C113.07 434.99 111.32 436.45 109.17 439.49L106 443.99H108.73C110.23 443.99 114.94 442.83 119.21 441.41ZM138.53 429.74C141.5 426.85 144.61 422.81 145.45 420.75C146.89 417.23 146.86 416.89 144.97 415C140.19 410.22 130.97 413.87 121.43 424.33C114.19 432.26 114.12 431.97 123.46 433.76C132.32 435.46 132.78 435.33 138.53 429.74ZM212.36 463.87C208.11 462.69 204.14 458.47 203.36 454.31C201.41 443.93 206.76 435.99 215.7 435.99C221.62 436 226.05 438.56 228.29 443.27C233.78 454.84 224.24 467.16 212.36 463.87ZM220.28 460.87C224.18 458.87 225.91 455.76 225.94 450.69C225.97 444.57 223.85 440.5 219.94 439.13C212.64 436.59 206.89 440.81 206.19 449.23C205.84 453.57 206.15 454.99 208 457.32C211.45 461.7 216.06 463.03 220.28 460.87ZM250.25 463.86C244.87 462.34 243.96 459.95 243.96 447.27C243.96 437.91 244.22 435.99 245.46 435.99C246.7 435.99 246.96 437.87 246.96 446.92C246.96 455.52 247.29 458.18 248.53 459.42C252.38 463.27 259.17 462.19 260.98 457.44C261.52 456.02 261.96 450.61 261.96 445.42C261.96 437.7 262.23 435.99 263.46 435.99C264.7 435.99 264.96 437.82 264.96 446.44C264.96 452.19 264.46 457.99 263.85 459.33C262 463.38 255.85 465.43 250.25 463.86ZM288.46 464.46C287.91 464.3 286.21 463.89 284.68 463.55C280.52 462.63 276.38 454.99 280.04 454.99C280.57 454.99 281.49 456.07 282.09 457.38C285.11 464 297.56 462.98 296.77 456.17C296.43 453.27 293.85 451.59 287.26 449.97C281.87 448.65 279.96 446.68 279.96 442.48C279.96 438.09 282.91 435.99 289.05 435.99C294.28 435.99 298.96 438.86 298.96 442.06C298.96 444.69 298.24 444.5 294.96 440.99C290.7 436.42 282.96 437.34 282.96 442.4C282.96 445.48 284.36 446.47 290.84 447.99C293.8 448.68 297.06 450.09 298.09 451.12C300.72 453.75 300.53 459.13 297.71 461.68C295.58 463.61 290.64 465.1 288.46 464.46ZM320.27 463.9C315.29 462.44 310.43 454.99 314.46 454.99C315.29 454.99 315.96 455.46 315.96 456.04C315.96 458.31 320.92 461.99 323.98 461.99C328.64 461.99 330.96 460.36 330.96 457.08C330.96 453.49 329.37 452.18 322.92 450.48C316.67 448.83 313.96 446.57 313.96 443.01C313.96 438.8 317.72 435.99 323.35 435.99C327.33 435.99 328.62 436.49 331.18 439.05C333.39 441.27 333.93 442.42 333.14 443.21C332.35 444 331.2 443.39 328.99 441.02C326.29 438.13 325.48 437.81 322.27 438.33C318.26 438.98 316.82 440.45 317.2 443.49C317.4 445.02 319.23 446.08 324.95 447.99C330.84 449.95 332.72 451.07 333.74 453.19C337.14 460.33 329.32 466.55 320.27 463.9ZM346.97 463.24C346.98 462.83 349.13 456.64 351.75 449.49C358.04 432.33 358.61 432.31 365.05 448.99C370.33 462.68 370.64 463.99 368.54 463.99C367.76 463.99 366.49 462.08 365.7 459.74C364.29 455.52 364.24 455.49 359.37 455.43C352.73 455.36 352.44 455.52 350.94 460.04C350.23 462.21 349.04 463.99 348.3 463.99C347.56 463.99 346.97 463.65 346.97 463.24ZM362.71 451.74C362.46 451.05 361.46 448.1 360.5 445.18C359.54 442.25 358.62 440 358.45 440.18C357.95 440.68 353.96 451.41 353.96 452.24C353.96 452.65 356.03 452.99 358.57 452.99C361.83 452.99 363.04 452.63 362.71 451.74ZM383.96 450C383.96 436.15 384.01 435.86 386.08 436.17C387.75 436.42 389.02 438.61 392.07 446.49C394.2 451.99 395.95 457.05 395.95 457.74C395.97 461.22 397.98 457.9 402 447.74C405.61 438.64 406.84 436.49 408.46 436.49C410.35 436.49 410.48 437.25 410.74 450.24C410.98 462.03 410.8 463.99 409.49 463.99C408.21 463.99 407.96 462.24 407.96 453.49C407.96 447.71 407.62 442.99 407.2 442.99C406.79 442.99 405.87 444.84 405.17 447.1C402.85 454.5 398.03 464.18 396.84 463.78C396.2 463.57 393.87 458.8 391.66 453.19C389.44 447.58 387.41 443.21 387.14 443.47C386.88 443.74 386.61 448.32 386.56 453.64C386.49 460.42 386.09 463.44 385.21 463.74C384.25 464.06 383.96 460.88 383.96 450ZM424.45 462.24C424.83 461.28 427.18 454.98 429.66 448.24C433.29 438.38 434.55 435.99 436.1 435.99C437.16 435.99 438.27 436.78 438.57 437.74C438.87 438.7 440.87 444.21 443.01 449.99C445.14 455.77 447.18 461.28 447.53 462.24C448.64 465.25 445.03 464.28 443.83 461.24C441.61 455.6 441.45 455.49 435.96 455.48C430.7 455.46 430.68 455.47 428.86 459.73C427.77 462.27 426.37 463.99 425.39 463.99C424.22 463.99 423.95 463.48 424.45 462.24ZM439.96 451.83C439.96 449.95 436.65 439.99 436.03 440C435.4 440.01 431.96 450 431.96 451.83C431.96 452.52 433.59 452.99 435.96 452.99C438.33 452.99 439.96 452.52 439.96 451.83ZM479.96 449.99C479.96 438.43 480.21 435.99 481.41 435.99C482.47 435.99 482.94 437.52 483.16 441.74L483.46 447.49H498.46L498.47 441.99C498.48 437.79 498.83 436.49 499.97 436.49C501.22 436.49 501.46 438.69 501.46 449.99C501.46 461.32 501.22 463.49 499.96 463.49C498.82 463.49 498.43 462.15 498.35 457.87C498.29 454.78 498 451.86 497.7 451.37C497.4 450.89 494.07 450.52 490.31 450.56L483.46 450.63L483.16 457.31C482.94 462.35 482.51 463.99 481.41 463.99C480.21 463.99 479.96 461.57 479.96 449.99ZM517.18 450.32C517.38 440.48 517.81 436.54 518.71 436.24C519.67 435.92 519.96 439.09 519.96 449.91C519.96 461.87 519.73 463.99 518.43 463.99C517.12 463.99 516.94 462.04 517.18 450.32ZM535.96 435.99H542.06C552.81 435.99 557.96 440.5 557.96 449.92C557.96 459.83 553.39 463.99 542.51 463.99H535.96V435.99ZM552.04 458.41C554.03 456.29 554.46 454.79 554.46 449.99C554.46 445.19 554.03 443.69 552.04 441.57C550.02 439.42 548.72 438.99 544.29 438.99H538.96V460.99H544.29C548.72 460.99 550.02 460.56 552.04 458.41ZM572.88 463.82C572.83 463.64 572.76 457.41 572.72 449.99L572.63 436.49H580.69C587.22 436.49 589.16 436.85 590.86 438.39C593.55 440.83 593.66 446.29 591.07 448.88C589.37 450.58 589.33 450.93 590.71 452.31C591.55 453.15 592.46 456.12 592.73 458.92C593.12 462.97 592.91 463.99 591.72 463.99C590.67 463.99 590.02 462.47 589.56 459.01C588.77 453.06 586.97 451.75 580.22 452.19L575.55 452.49L575.39 457.94C575.31 461 574.74 463.56 574.1 463.78C573.47 463.99 572.92 464.01 572.88 463.82ZM589.14 446.49C589.99 444.62 589.99 443.36 589.14 441.49C588.11 439.23 587.43 438.99 581.98 438.99C576.12 438.99 575.96 439.06 575.81 441.74C575.72 443.25 575.58 445.16 575.49 445.99C575.2 448.64 575.97 448.99 582.04 448.99C587.43 448.99 588.11 448.75 589.14 446.49ZM607.96 449.99C607.96 438.21 608.2 435.99 609.46 435.99C610.72 435.99 610.96 438.21 610.96 449.99C610.96 461.77 610.72 463.99 609.46 463.99C608.2 463.99 607.96 461.77 607.96 449.99Z" fill="#050606"/>
<g id="first_text">
<path d="M657.878 366.07C647.838 362.79 640.828 355.78 637.468 345.68C635.648 340.21 635.378 337.6 635.768 329.07C636.278 318.12 638.348 312.47 644.278 305.84C654.868 294 674.748 292.17 686.378 301.96C689.828 304.85 693.208 309.94 693.698 312.95C694.328 316.78 692.098 315.65 689.498 310.82C688.008 308.06 685.048 304.65 682.638 302.95C678.818 300.25 677.478 299.91 669.438 299.6C661.438 299.29 659.928 299.52 655.198 301.84C648.458 305.13 642.198 313.23 640.488 320.86C639.818 323.87 639.498 330.03 639.748 335.06C640.638 352.52 649.358 362.44 665.218 364.05C676.968 365.25 687.388 358.51 691.108 347.31C692.778 342.28 695.578 340.63 695.538 344.7C695.478 351.07 688.348 360.92 681.058 364.7C676.018 367.32 663.898 368.04 657.878 366.07ZM564.438 342.7C564.258 308.54 563.888 301.22 562.308 300.33C561.578 299.92 556.378 299.67 550.768 299.77C546.878 299.84 544.448 299.85 542.938 299.72C543.008 299.7 543.078 299.69 543.148 299.68C544.908 299.34 545.338 298.93 544.478 298.4C543.638 297.88 544.208 297.47 546.138 297.18C548.078 296.89 548.138 296.76 546.028 296.65C549.728 296.53 555.918 296.58 566.228 296.68C584.348 296.87 592.008 297.29 592.268 298.09C592.538 298.89 589.188 299.34 581.188 299.6C574.878 299.8 569.488 300.18 569.218 300.46C568.248 301.43 567.698 315.23 567.628 340.7C567.568 362.89 567.348 366.45 566.058 366.45C564.768 366.45 564.538 363.09 564.438 342.7ZM611.558 331.95C611.558 298.12 611.598 297.45 613.558 297.45C615.518 297.45 615.558 298.12 615.558 331.95C615.558 365.78 615.518 366.45 613.558 366.45C611.598 366.45 611.558 365.78 611.558 331.95ZM524.758 319.74C522.678 321.95 522.668 322.02 524.588 322.02C525.408 322.02 526.278 321.54 526.788 320.86C525.768 326.53 523.238 329.74 518.058 332.41C517.768 332.55 517.498 332.69 517.228 332.82C517.378 332.42 517.278 331.89 517.008 331.18C516.628 330.18 516.038 329.9 514.478 330.23C520.258 328.52 523.058 323.82 523.058 315.85C523.058 311.05 522.568 308.94 520.958 306.77C516.838 301.25 512.648 299.96 496.428 300.17C512.308 299.96 516.608 301.16 520.468 306.06C522.118 308.16 522.558 308.35 522.558 306.96C522.558 305.43 522.788 305.38 524.298 306.58C525.928 307.87 525.938 307.8 524.448 305.46C526.728 308.7 527.558 312.4 527.228 317.15C527.208 317.42 527.188 317.68 527.168 317.94C526.748 317.89 525.938 318.49 524.758 319.74ZM502.338 335.31C504.558 335.14 506.138 334.95 506.558 334.76C507.388 334.4 509.948 334.06 512.248 334C513.248 333.98 514.068 333.94 514.738 333.87C512.178 334.72 509.148 335.03 502.338 335.31ZM513.408 330.49C513.358 330.51 513.298 330.52 513.238 330.54C511.498 331.04 504.108 331.45 496.818 331.45C503.508 331.44 510.658 331.02 513.408 330.49ZM523.818 304.62C522.638 303.22 520.528 301.3 518.618 299.95C514.938 297.34 514.418 297 503.898 296.77C514.438 297 514.938 297.33 518.718 299.99C520.828 301.48 522.518 302.99 523.818 304.62ZM540.578 297.92C540.568 298.02 540.558 298.14 540.558 298.26C540.558 298.23 540.558 298.21 540.558 298.18C540.558 298.09 540.568 298 540.578 297.92Z" fill="#8C7451"/>
<path d="M479.769 332.41C480.019 303.49 480.289 298.23 481.559 297.38C482.439 296.79 489.489 296.5 498.729 296.67C514.329 296.95 514.408 296.96 518.618 299.95C520.948 301.6 523.569 304.07 524.439 305.45C525.939 307.8 525.928 307.87 524.298 306.58C522.788 305.38 522.558 305.43 522.558 306.96C522.558 308.35 522.118 308.16 520.468 306.06C516.298 300.76 511.609 299.79 492.309 300.24L483.559 300.45V331.45L496.818 331.45C504.108 331.45 511.498 331.04 513.238 330.54C515.768 329.82 516.538 329.95 517.008 331.18C517.858 333.38 517.018 333.88 512.248 334C509.948 334.06 507.388 334.4 506.558 334.76C505.728 335.13 500.339 335.54 494.559 335.68L484.059 335.95L483.779 351.2C483.679 356.9 483.599 360.47 483.429 362.71C483.209 361.97 482.669 361.87 481.559 362.16C480.859 362.34 480.239 362.85 479.879 363.46C479.549 359.71 479.609 351.31 479.769 332.41ZM438.809 361.25C445.639 358.31 450.529 352.12 453.199 344.72C452.879 345.7 452.659 346.48 452.639 346.74C452.539 347.7 456.219 345.81 457.049 344.47C457.379 343.93 457.109 342.47 456.439 341.23C455.249 339 455.209 339.02 453.969 342.46C453.879 342.71 453.789 342.96 453.699 343.21C456.279 334.97 456.189 325.45 453.039 317.25C453.139 317.08 453.219 316.56 453.349 315.7C453.539 314.46 454.129 313.45 454.659 313.45C455.299 313.45 455.209 312.68 454.619 311.52C455.159 312.38 455.659 313.27 456.109 314.16C458.369 318.65 458.889 320.23 459.009 326.82C458.829 326.38 458.629 326.96 458.129 328.7C457.699 330.21 457.699 332.23 458.129 333.2C458.619 334.3 458.829 334.58 459.039 333.93C459.009 342.36 458.629 343.83 456.169 348.84C454.049 353.15 451.369 356.77 448.159 359.66C448.459 359.06 448.379 358.41 447.969 357.55C447.109 355.71 446.879 355.77 443.559 358.66C441.639 360.34 440.619 361.4 441.309 361.02C441.999 360.64 442.559 360.81 442.559 361.39C442.559 362.49 443.739 362.65 445.279 361.96C443.929 362.91 442.509 363.75 441.019 364.47C438.879 365.51 436.089 366.27 433.069 366.73C433.279 366.58 433.369 366.4 433.299 366.2C433.029 365.41 430.719 364.91 426.969 364.84C419.929 364.7 412.829 361.59 407.479 356.73C416.199 364.57 427.339 366.18 438.809 361.25ZM341.059 326.95H305.149L304.559 329.44C303.869 332.35 300.839 333.34 299.919 330.96C299.249 329.2 300.889 326.95 302.859 326.95C303.699 326.95 304.209 323.39 304.559 315.2C304.829 308.73 304.669 303.45 304.189 303.45C303.709 303.45 303.879 302.78 304.559 301.95C305.239 301.12 306.899 300.45 308.249 300.45C309.589 300.45 311.559 299.99 312.609 299.42C314.789 298.26 339.719 297.81 341.489 298.9C342.129 299.3 342.359 300.51 341.999 301.63C341.789 302.31 341.709 302.76 341.819 303.03L305.059 303.95L304.489 326.4L341.059 326.95ZM342.559 363.35C342.559 365.29 342.059 365.44 335.809 365.26C309.579 364.54 305.109 362.2 328.809 361.6C342.209 361.27 342.559 361.31 342.559 363.35ZM429.119 295.89C428.969 296.16 429.059 296.63 429.239 297.35C429.579 298.65 430.609 299.45 431.929 299.46C433.889 299.47 436.359 300.34 438.899 301.72C435.319 300.24 431.159 299.47 426.559 299.48C421.579 299.49 417.239 300.36 413.489 302.11C415.399 301.04 417.259 300.24 418.769 299.9C420.419 299.54 422.689 298.32 423.809 297.2L425.149 295.86C426.479 295.81 427.809 295.82 429.119 295.89ZM449.589 352.69C449.549 353.74 453.889 352.96 454.239 351.86C454.399 351.36 454.099 350.28 453.579 349.45C452.769 348.17 452.419 348.24 451.129 349.95C450.299 351.05 449.609 352.28 449.589 352.69ZM338.019 330.52C337.259 331.75 332.839 331.72 332.079 330.48C331.359 329.31 335.999 327.98 337.519 328.92C338.109 329.29 338.329 330.01 338.019 330.52ZM540.559 298.31C540.559 296.76 541.279 296.48 544.809 296.6C548.099 296.72 548.398 296.85 546.138 297.18C544.208 297.47 543.638 297.88 544.478 298.4C545.338 298.93 544.908 299.34 543.148 299.68C541.108 300.07 540.559 299.78 540.559 298.31ZM524.758 319.74C527.148 317.2 528.039 317.35 527.149 320.16C526.829 321.18 525.668 322.02 524.588 322.02C522.668 322.02 522.678 321.95 524.758 319.74ZM327.409 285C327.219 285.98 326.449 286.99 325.709 287.23C324.849 287.52 324.489 287.04 324.709 285.9C324.899 284.92 325.669 283.91 326.409 283.67C327.269 283.38 327.629 283.86 327.409 285ZM399.079 343.02C397.489 337.04 397.189 329.58 398.279 323.51C398.099 325.44 398.059 327.89 398.059 331.45C398.069 336.09 398.359 339.83 399.079 343.02ZM399.529 353.31C395.659 347.48 393.559 340.22 393.569 332.04C393.589 320.89 396.789 311.86 402.909 305.42C396.929 311.83 393.589 321 393.569 332.04C393.559 340.21 395.669 347.49 399.529 353.31ZM445.179 301.38C442.429 299.46 439.399 297.94 436.289 296.93C437.549 297.25 438.719 297.65 439.739 298.12C441.589 298.97 443.429 300.08 445.179 301.38ZM452.319 315.42C452.339 315.5 452.359 315.58 452.379 315.66C451.539 313.76 450.529 311.94 449.329 310.24C450.809 312.03 451.889 313.82 452.319 315.42ZM344.009 302.98C344.739 302.51 345.059 301.56 345.059 299.95V302.95L344.009 302.98ZM415.369 365.68C412.889 364.76 410.589 363.6 408.489 362.22C410.589 363.6 412.889 364.74 415.369 365.62C417.449 366.36 420.449 366.89 423.409 367.17C420.409 366.99 417.589 366.5 415.369 365.68ZM403.069 311.37C403.449 310.73 403.819 310.18 404.149 309.74C404.489 309.3 404.879 308.84 405.309 308.39C404.519 309.31 403.769 310.3 403.069 311.37ZM415.159 297.45C414.179 297.79 413.239 298.18 412.329 298.61C412.569 298.49 412.809 298.37 413.059 298.26C413.709 297.96 414.409 297.69 415.159 297.45ZM481.529 366.45C481.519 366.45 481.509 366.45 481.499 366.45C481.259 366.45 481.049 366.44 480.869 366.37C481.069 366.42 481.289 366.45 481.529 366.45Z" fill="#AE8E5E"/>
<path d="M297.539 362.7C297.529 360.64 297.249 346.07 296.899 330.32C296.559 314.58 296.579 300.5 296.939 299.05L297.609 296.41L345.059 296.95V299.94C345.059 302.04 344.519 303.03 343.209 303.28C341.759 303.56 341.499 303.2 341.999 301.63C342.359 300.51 342.129 299.3 341.489 298.9C339.719 297.81 314.789 298.26 312.609 299.42C311.559 299.99 309.589 300.45 308.249 300.45C306.899 300.45 305.239 301.12 304.559 301.95C303.879 302.78 303.709 303.45 304.189 303.45C304.669 303.45 304.829 308.73 304.559 315.2C304.209 323.39 303.699 326.95 302.859 326.95C300.889 326.95 299.249 329.2 299.919 330.96C300.839 333.34 303.869 332.35 304.559 329.44L305.149 326.95H341.059L341.679 333.4L305.059 333.95L304.499 359.41L346.059 359.95L346.689 366.45H297.559L297.539 362.7ZM262.549 328.38C267.759 322.9 268.239 321.85 267.959 316.46C267.669 310.68 265.539 306.82 261.459 304.7C259.809 303.84 254.849 303.53 245.559 303.7L232.059 303.95L231.779 315.89C231.719 318.12 231.699 320.29 231.709 322.2C231.619 320.63 231.529 318.73 231.419 316.45C231.049 308.57 231.179 302.47 231.719 301.79C232.229 301.16 233.869 300.79 235.359 300.99C236.839 301.18 239.639 301.04 241.559 300.68L245.059 300.03L238.059 298.71L241.369 298.58C243.189 298.51 244.469 298.11 244.209 297.69C243.949 297.28 239.309 296.94 233.899 296.94L224.059 296.95L242.059 296.71C261.389 296.46 264.689 297 269.729 301.24C279.679 309.62 278.269 325.7 267.019 332.06C265.169 333.11 265.229 333.31 268.399 335.97C272.619 339.52 273.369 341.58 274.579 352.82C274.809 354.99 275.079 357.19 275.329 359.08C275.139 358.7 274.869 358.45 274.559 358.45C274.009 358.45 273.559 360.25 273.559 362.45C273.559 365.09 273.859 366.17 274.749 366.4C274.219 366.44 273.519 366.45 272.649 366.45C272.019 366.45 271.419 366.41 270.879 366.35C271.329 366.14 271.159 365.57 270.429 364.22C269.779 362.99 269.169 359.16 269.089 355.71C269.009 351.98 268.409 348.94 267.629 348.19C266.529 347.17 266.409 348.47 266.889 355.72C267.009 357.6 267.169 359.41 267.329 360.96C267.109 359.22 266.879 357.12 266.669 354.95C265.039 338.17 263.769 337.1 244.859 336.6L234.759 336.34L236.809 336.11C250.519 334.56 252.559 334.15 252.559 332.91C252.559 331.7 251.089 331.48 234.559 330.15C233.919 330.1 233.439 330.06 233.069 329.8C238.249 331.21 260.639 330.39 262.549 328.38ZM415.369 365.62C401.749 360.76 393.539 348.12 393.569 332.04C393.599 312.34 404.199 298.61 421.499 295.84L425.859 295.15L423.809 297.2C422.689 298.32 420.419 299.54 418.769 299.9C414.429 300.86 407.239 305.7 404.149 309.74C402.679 311.67 400.549 315.88 399.419 319.1C396.669 326.9 397.149 339.52 400.499 347.18C404.879 357.2 416.009 364.62 426.969 364.84C430.719 364.91 433.029 365.41 433.299 366.2C433.939 368.08 421.099 367.67 415.369 365.62ZM452.319 315.42C450.569 308.98 438.439 299.49 431.929 299.46C430.609 299.45 429.579 298.65 429.239 297.35C428.739 295.42 428.989 295.31 432.379 295.93C438.149 296.99 443.939 299.89 448.499 304.01C452.749 307.86 456.399 313.45 454.659 313.45C454.129 313.45 453.539 314.46 453.349 315.7C453.019 317.89 452.989 317.88 452.319 315.42ZM342.559 363.35C342.559 361.31 342.209 361.27 328.809 361.6C305.109 362.2 309.579 364.54 335.809 365.26C342.059 365.44 342.559 365.29 342.559 363.35ZM319.559 291.54C319.559 289.15 322.929 282.32 324.529 281.47C325.479 280.96 327.479 280.87 328.979 281.27L331.709 282L328.379 286.98C325.949 290.62 324.329 292.03 322.309 292.27C320.799 292.44 319.559 292.11 319.559 291.54ZM442.559 361.39C442.559 360.81 441.999 360.64 441.309 361.02C440.619 361.4 441.639 360.34 443.559 358.66C446.879 355.77 447.109 355.71 447.969 357.55C448.659 359.01 448.409 359.85 446.969 360.94C444.709 362.65 442.559 362.87 442.559 361.39ZM452.639 346.74C452.679 346.3 453.279 344.38 453.969 342.46C455.209 339.02 455.249 339 456.439 341.23C457.109 342.47 457.379 343.93 457.049 344.47C456.219 345.81 452.539 347.7 452.639 346.74ZM479.559 364.57C479.559 363.52 480.449 362.45 481.559 362.16C483.149 361.74 483.559 362.13 483.559 364.04C483.559 365.78 483.009 366.45 481.559 366.45C480.269 366.45 479.559 365.78 479.559 364.57ZM449.589 352.69C449.609 352.28 450.299 351.05 451.129 349.95C452.419 348.24 452.769 348.17 453.579 349.45C454.099 350.28 454.399 351.36 454.239 351.86C453.889 352.96 449.549 353.74 449.589 352.69ZM338.019 330.52C338.329 330.01 338.109 329.29 337.519 328.92C335.999 327.98 331.359 329.31 332.079 330.48C332.839 331.72 337.259 331.75 338.019 330.52ZM458.129 333.2C457.699 332.23 457.699 330.21 458.129 328.7C458.869 326.11 458.939 326.08 459.309 328.2C459.519 329.44 459.519 331.46 459.309 332.7C458.959 334.68 458.819 334.74 458.129 333.2ZM327.409 285C327.629 283.86 327.269 283.38 326.409 283.67C325.669 283.91 324.899 284.92 324.709 285.9C324.489 287.04 324.849 287.52 325.709 287.23C326.449 286.99 327.219 285.98 327.409 285ZM275.669 361.45C275.779 362.18 275.889 362.82 275.979 363.31C275.849 362.7 275.739 362.04 275.669 361.45ZM276.349 364.95C276.399 365.22 276.419 365.45 276.379 365.63C276.399 365.44 276.389 365.21 276.349 364.95Z" fill="#B2A082"/>
<path d="M151.009 365.19C150.749 364.5 150.649 348.86 150.799 330.44L151.029 300.27C151.629 300.46 152.989 299.85 155.559 298.41L158.359 296.84L188.249 296.41L193.579 299.19C200.189 302.64 203.559 308.23 203.559 315.71C203.559 322.11 201.139 327.08 196.419 330.34C194.339 331.77 192.619 333.22 192.599 333.54C192.579 333.86 193.659 334.63 195.009 335.25C198.639 336.9 200.559 341.53 201.639 351.26C202.829 361.91 203.299 364.86 202.149 365.75C201.609 366.18 200.689 366.15 199.309 366.26C197.249 366.43 195.529 366.21 195.489 365.76C193.619 344.88 191.879 340 185.469 337.76C181.929 336.52 162.919 335.99 160.139 337.06C158.799 337.57 158.559 339.85 158.559 352.06V366.45H155.029C154.709 366.45 154.389 366.43 154.079 366.41C155.229 366.17 155.269 364.81 154.839 358.2C154.549 353.66 153.919 349.52 153.439 349C152.949 348.48 152.479 346.9 152.379 345.5C152.279 344.1 151.929 347.9 151.599 353.95C151.299 359.62 151.179 364.62 151.319 365.56C151.169 365.45 151.059 365.32 151.009 365.19ZM189.099 328.23C192.109 326.63 193.569 324.57 195.549 319.11C196.359 316.88 196.179 315.39 194.709 312.11C191.219 304.31 190.299 303.95 173.709 303.95H159.059L158.779 316.37C158.569 325.61 158.819 329.02 159.779 329.67C162.019 331.21 185.669 330.04 189.099 328.23ZM224.059 296.95L233.899 296.94C239.309 296.94 243.949 297.28 244.209 297.69C244.469 298.11 243.189 298.51 241.369 298.58L238.059 298.71L245.059 300.03L241.559 300.68C239.639 301.04 236.839 301.18 235.359 300.99C233.869 300.79 232.229 301.16 231.719 301.79C231.179 302.47 231.049 308.57 231.419 316.45C232.059 329.94 232.059 329.95 234.559 330.15C251.089 331.48 252.559 331.7 252.559 332.91C252.559 334.15 250.519 334.56 236.809 336.11L231.559 336.7V366.45H223.529L224.059 296.95ZM268.069 365.47C267.739 364.93 267.199 360.54 266.889 355.72C266.409 348.47 266.529 347.17 267.629 348.19C268.409 348.94 269.009 351.98 269.089 355.71C269.169 359.16 269.779 362.99 270.429 364.22C271.419 366.06 271.369 366.45 270.149 366.45C269.339 366.45 268.409 366.01 268.069 365.47ZM273.559 362.45C273.559 360.25 274.009 358.45 274.559 358.45C275.109 358.45 275.569 359.24 275.569 360.2C275.579 361.16 275.859 362.96 276.189 364.2C276.629 365.85 276.369 366.45 275.179 366.45C273.959 366.45 273.559 365.47 273.559 362.45ZM151.049 297.96L151.059 296.95L153.169 296.92C152.089 297.13 151.419 297.46 151.049 297.96Z" fill="#C4B392"/>
<path d="M74.6186 364.76C74.6486 363.76 80.1986 348.1 86.9486 329.95L99.2186 296.95L103.229 296.65C105.639 296.47 107.649 296.87 108.279 297.65C109.389 299.03 132.449 360.37 133.289 364.2C133.749 366.24 133.419 366.45 129.749 366.45C125.779 366.45 125.669 366.35 123.769 361.2C122.699 358.31 121.059 353.58 120.109 350.67L118.379 345.4L89.2386 345.95L81.8886 365.95L78.2186 366.26C75.2186 366.51 74.5686 366.24 74.6186 364.76ZM27.0586 367.4C15.8486 365.86 6.74863 358.5 2.36863 347.45C-0.631374 339.88 -0.811369 324.31 1.99863 316.71C5.00863 308.6 10.2286 302.44 17.0186 298.97C22.4386 296.2 23.7586 295.95 32.9886 295.96C41.3786 295.97 43.7286 296.33 47.0586 298.12C52.2186 300.9 57.0486 305.97 59.0086 310.67C61.3886 316.38 61.0786 317.45 57.0686 317.45C53.8886 317.45 53.3686 317.03 51.4086 312.86C48.1586 305.93 43.0986 303.03 33.6286 302.64C24.3686 302.26 18.7986 304.68 13.8486 311.24C9.51862 316.98 8.10864 322.26 8.15864 332.45C8.25864 350.13 17.1086 360.37 32.3386 360.43C42.8186 360.46 48.8886 356.38 52.4886 346.86C54.2086 342.31 54.6186 341.93 58.0886 341.63L61.8386 341.31L61.1686 345.47C58.7486 360.61 44.4486 369.8 27.0586 367.4ZM115.509 336.64C114.959 335.71 112.069 327.98 109.079 319.45C106.099 310.92 103.629 304.17 103.599 304.45C103.569 304.73 101.239 311.48 98.4286 319.45C95.6286 327.42 93.1186 335.07 92.8686 336.45L92.3986 338.95L104.449 338.64C115.449 338.36 116.419 338.19 115.509 336.64ZM151.349 365.7C151.159 365.29 151.279 360 151.599 353.95C151.929 347.9 152.279 344.1 152.379 345.5C152.479 346.9 152.949 348.48 153.439 349C153.919 349.52 154.549 353.66 154.839 358.2C155.329 365.75 155.209 366.45 153.519 366.45C152.509 366.45 151.529 366.11 151.349 365.7ZM150.739 298.7C150.979 297.44 152.179 296.88 155.069 296.7L159.059 296.45L155.559 298.41C151.189 300.85 150.329 300.91 150.739 298.7Z" fill="#D9C9AE"/>
</g>
<g id="icon">
<path d="M445.11 144.24C450.28 138.97 452.46 136.14 452.46 134.79C452.46 133.14 451.89 132.45 450.52 132.45C449.45 132.45 448.31 132.02 447.99 131.49C447.66 130.97 446.66 130.82 445.76 131.16C444.67 131.58 444.37 131.4 444.85 130.62C446.82 127.44 443.01 130.31 434.58 138.39C430.83 141.98 427.92 144.58 425.48 146.42C428.19 144.25 431.88 140.98 435.37 137.6C440.86 132.29 446.89 126.51 448.77 124.75C454.42 119.45 455.22 109.57 450.59 102.4C446.53 96.1 426.51 76.79 422.16 74.97C413.25 71.25 408.42 73.41 393.82 87.67C382.55 98.67 378.45 103.81 377.43 109.19C378.13 105.17 380.34 101.61 385.26 96.06C395.82 84.14 395.84 84.11 393.8 83.34C390.58 82.12 387.19 83.63 382 88.61C379.23 91.27 376.51 93.45 375.96 93.45C374.42 93.45 368.53 99.13 366.82 101.96C366.88 101.66 366.95 101.44 367.02 101.32C367.54 100.42 370.96 96.97 374.63 93.65C378.31 90.34 383.03 85.69 385.13 83.32L388.96 79.02L383.71 83.39C380.82 85.79 378.46 88.09 378.46 88.49C378.46 89.46 374.12 92.72 369.76 95.36C371.88 93.58 374.69 90.64 379.75 85.27C380.73 84.23 381.28 82.97 380.98 82.48C380.68 81.99 380.95 81.26 381.6 80.86C382.39 80.37 382.51 80.59 381.95 81.55C381.51 82.32 381.5 82.63 381.93 82.23C383.6 80.73 383.53 73.18 381.83 71.31C380.25 69.57 379.75 69.89 370.83 78.42C365.89 83.14 362.75 85.84 359.88 87.22C363.32 85.49 367.41 81.71 375.03 74.27C398.04 51.8 398.1 48.54 375.97 26.4C355.68 6.11001 352.57 6.15001 331.34 26.99C329.33 28.97 327.36 30.84 325.55 32.51C328.35 29.7 330.52 27.04 329.77 26.76C329.11 26.52 328.8 25.72 329.08 24.99C329.37 24.25 329.12 23.36 328.53 22.99C327.94 22.63 327.46 22.84 327.46 23.45C327.46 24.06 327 24.29 326.44 23.94C325.88 23.59 325.67 22.92 325.96 22.45C326.26 21.97 325.03 21.61 323.23 21.63C320.94 21.67 319.09 22.62 316.24 25.27C318.11 23.3 320.69 20.72 324.27 17.18C339.33 2.28001 343.26 0 353.96 0C364.78 0 368.38 2.14999 384.51 18.19C400.85 34.43 403.9 39.54 403.79 50.45C403.75 54.09 403 58.67 402.08 60.85C401.17 63 400.62 64.95 400.85 65.18C401.09 65.41 402.78 64.79 404.62 63.79C407 62.51 410.11 61.99 415.46 62.01C426.47 62.03 430.08 64.17 446.42 80.37C462.33 96.14 464.71 100.04 465.3 111.21C465.88 122.32 463.72 125.87 445.22 144.13C445.18 144.17 445.14 144.21 445.11 144.24ZM366.3 108.02C366.31 110.09 366.33 112.58 366.36 115.11L366.48 125.26L366.43 125.31L366.25 114.13C366.22 111.98 366.24 109.88 366.3 108.02ZM411.52 149.88C407.09 148.6 402.26 144.8 393.41 136.11C401.5 144.05 406.87 148.35 411.52 149.88ZM362.49 98.96C358.05 100.38 353.9 100.73 349.57 100C353.75 100.62 358.03 100.27 362.49 98.96ZM318.05 38.89C317.53 39.25 317.16 39.45 316.99 39.45C315.53 39.45 314.35 39.13 313.47 38.51C314.44 39.01 315.85 39.4 316.75 39.42C317.03 39.42 317.48 39.23 318.05 38.89ZM331.27 90.28C326.79 86.25 323.46 81.8 323.46 78.95C323.46 81.74 326.81 86.22 331.27 90.28ZM424.48 160.85C425.91 160.43 427.11 159.96 428.4 159.23C427.09 159.98 425.91 160.43 424.5 160.84C424.5 160.85 424.49 160.85 424.48 160.85Z" fill="#8C7451"/>
<path d="M404.64 160.3C404.53 160.26 404.42 160.22 404.31 160.17C404.15 159.85 403.27 159.02 401.6 157.67C399.75 156.17 396.32 153.04 393.98 150.7C391.64 148.36 389.23 146.45 388.62 146.45C388.02 146.45 387 145.44 386.35 144.2C385.08 141.79 383.56 140.49 381.99 140.47C381.35 140.46 383.31 142.74 386.18 145.67C375.27 135.33 373.13 134.69 368.87 138.95C368.34 139.48 367.87 139.92 367.44 140.27C367.45 140.17 367.46 140.06 367.46 139.95C367.46 139.12 367.12 138.5 366.71 138.57C361.25 139.43 359.4 136.9 361.8 131.86C362.86 129.64 362.95 128.5 362.34 128.54C362.4 128.5 362.46 128.45 362.53 128.4L366.48 125.26L366.36 115.11C366.31 111.17 366.29 107.33 366.31 105.04L367.64 103.71C369.25 102.1 369.58 101.17 368.8 100.39C368.59 100.18 368.4 100.07 368.21 100.07C370.64 97.1499 374.72 93.45 375.96 93.45C376.51 93.45 379.23 91.27 382 88.61C387.19 83.63 390.58 82.12 393.8 83.34C395.84 84.11 395.82 84.14 385.26 96.06C378.96 103.17 377.1 107 377.17 112.73C377.25 119.1 379.75 122.71 393.41 136.11C404.8 147.29 409.53 150.38 415.31 150.42C420.58 150.47 424.56 147.98 434.58 138.39C443.01 130.31 446.82 127.44 444.85 130.62C444.37 131.4 444.67 131.58 445.76 131.16C446.66 130.82 447.66 130.97 447.99 131.49C448.31 132.02 449.45 132.45 450.52 132.45C451.89 132.45 452.46 133.14 452.46 134.79C452.46 136.45 449.18 140.33 441.13 148.2C431.4 157.71 429.04 159.5 424.45 160.86C417.36 162.97 411.12 162.79 404.64 160.3ZM326.31 135.97C326.33 135.98 326.34 136 326.36 136.01C323.48 139.21 318.73 143.98 310.73 151.94C307.99 154.66 305.59 157.04 303.47 159.12C304.53 158.05 305.67 156.9 306.89 155.66C315.35 147.03 322.09 139.66 321.86 139.28C321.62 138.91 320.1 138.98 318.46 139.45C314.52 140.58 313.92 139.26 316.8 135.78C318.1 134.23 319.68 131.97 320.31 130.77C321.92 127.7 321.74 120.36 319.94 116.06C318.39 112.34 294.16 87.45 292.09 87.45C291.56 87.45 295.49 91.85 301.16 97.65C294.97 91.55 288.99 86.1899 287.14 85.4999C286.54 85.2699 285.9 85.0899 285.24 84.9399C288.77 85.2699 288.52 85.0799 286.15 83.8199C282.55 81.8999 273.07 82.9 270.63 85.45C269.71 86.41 268.01 87.4899 266.85 87.8499C265.69 88.2099 263.09 90.28 261.07 92.46C259.05 94.64 256.31 96.6999 254.97 97.0399C253.63 97.3699 252.26 98.5099 251.92 99.5599C251.32 101.45 249.46 101.28 249.46 99.33C249.46 98.78 249.88 98.5899 250.39 98.9099C250.9 99.2199 251.63 98.46 252.02 97.21C252.76 94.85 257.04 88.8999 261.4 84.1899C266.24 78.9599 272.96 74.7499 277.56 74.0599C282.98 73.2499 294.15 76.3499 296.95 79.4399C297.95 80.5499 299.17 81.45 299.65 81.45C300.14 81.45 304.55 85.5 309.46 90.45C314.37 95.4 318.82 99.45 319.36 99.45C320.06 99.45 317.59 96.73 313.91 93.12C321.3 99.78 323.51 99.73 327.59 95.83L330.33 93.2L331.98 94.2199C330.33 93.4299 329.7 93.77 327.58 95.99C325.39 98.27 325.29 98.6 326.96 97.96C328.06 97.55 330.31 96.89 331.96 96.52L334.68 95.9C336.66 97.15 337.91 98.0499 338.44 98.9399C337.89 98.6299 337.01 99.51 336.47 100.92C335.93 102.34 334.81 103.76 333.98 104.08C333.14 104.4 332.46 105.37 332.46 106.23C332.46 106.94 332.67 107.16 333.25 106.84C329.72 110.4 329.39 111.33 329.93 113.85C330.1 114.63 330.25 115.36 330.38 116.05C330.08 115.06 329.71 114.45 329.32 114.45C328.66 114.45 328.54 116.71 328.98 120.79C329.54 126.02 329.31 127.86 327.68 131.24C326.58 133.5 325.97 135.63 326.31 135.97ZM344.46 98.74C341.84 97.84 338.94 96.2099 336.15 94.2299C336.85 94.5499 335.86 93.3399 332.95 90.6599C327.78 85.8699 324.67 79.9299 326.12 77.6299C327.91 74.7799 330.26 75.15 334.98 79.02C337.47 81.06 339.74 82.4999 340.03 82.2199C340.15 82.0899 340.04 81.81 339.75 81.43C345.16 86.35 347.47 87.78 350.41 88.17C358.21 89.22 360.86 87.95 370.83 78.42C379.75 69.89 380.25 69.57 381.83 71.31C383.53 73.18 383.6 80.73 381.93 82.23C381.5 82.63 381.51 82.32 381.95 81.55C382.51 80.59 382.39 80.37 381.6 80.86C380.95 81.26 380.68 81.99 380.98 82.48C381.28 82.97 380.73 84.23 379.75 85.27C369.19 96.48 368.44 97.09 363.2 98.74C356.63 100.81 350.47 100.81 344.46 98.74ZM371.7 158.33C368.37 162.82 365.88 162.3 359.07 155.68C350.62 147.46 348.85 146.45 342.93 146.45C339.21 146.45 337.02 147.06 333.86 149.03C334.87 148.27 335.67 147.75 336.2 147.54C337.98 146.81 339.19 145.82 338.89 145.33C337.87 143.68 335.87 144.44 329.91 148.75C314.41 159.94 311.88 159.3 323.71 147.19C333.17 137.5 337.01 135.31 343.23 136.06C349.16 136.78 354.46 138.36 354.46 139.41C354.46 139.85 355.7 140.73 357.21 141.36C358.72 141.99 362.32 144.7 365.21 147.38C369.39 151.26 370.46 152.89 370.46 155.38C370.46 157.27 369.85 158.75 368.93 159.1C367.16 159.78 359.89 155.03 357.77 151.8C356.98 150.59 355.03 149.15 353.45 148.6C351.18 147.81 352.07 149 357.65 154.27C365.62 161.78 368.5 162.62 371.7 158.33ZM313.21 38.37C312.04 37.69 311.46 36.12 311.46 33.61C311.46 30.51 312.2 29.1599 315.71 25.7799C318.86 22.7399 320.8 21.67 323.23 21.63C325.03 21.61 326.26 21.97 325.96 22.45C325.67 22.92 325.88 23.59 326.44 23.94C327 24.29 327.46 24.06 327.46 23.45C327.46 22.84 327.94 22.63 328.53 22.99C329.12 23.36 329.37 24.25 329.08 24.99C328.8 25.72 329.11 26.52 329.77 26.76C331.41 27.37 318.98 39.46 316.75 39.42C315.76 39.4 314.17 38.93 313.21 38.37ZM379.21 205.46C375.65 207.63 375.11 207.77 374.13 206.78C372.21 204.87 376.28 200.45 379.96 200.45C383.52 200.45 383.13 203.07 379.21 205.46ZM308.06 87.5699C302.5 82.4399 296.51 77.31 294.16 75.95C293.35 75.49 292.64 75.0899 291.98 74.7599C296.26 76.6299 300.62 80.3499 308.06 87.5699ZM273.09 159.28C270.6 157.83 267.6 155.13 262.2 149.78C266.45 153.82 270.49 157.38 273.09 159.28ZM314.88 133.49C312.35 136.78 308.78 140.56 304.18 145.23C299.41 150.07 295.82 153.55 292.89 156C299.35 150.37 309.69 139.79 314.88 133.49ZM247.37 111.69C249.81 108.66 253.35 104.95 258.41 99.95C262.35 96.06 265.42 93.0999 267.96 90.8799C261.59 96.5999 252.23 106.03 247.37 111.69ZM318.54 118.38C319.75 121.35 319.81 124.07 318.71 127.01C319.62 124.01 319.57 121.4 318.54 118.38ZM307.73 174.78C309.58 172.21 313.7 167.75 318.29 163.17C314.01 167.54 309.98 171.93 307.73 174.78ZM306 192.89C304.5 189.73 304.08 185.98 304.67 182.37C304.26 186.03 304.69 190.14 306 192.89ZM278.36 173.28C281.05 173.42 284 173.22 286.49 172.69C284.48 173.35 282.54 173.41 279.96 173.36C279.46 173.35 278.92 173.32 278.36 173.28ZM243.1 127.43C242.63 126.03 242.46 124.68 242.46 123.18C242.46 121.56 242.67 120.07 243.22 118.51C242.35 121.48 242.31 124.64 243.1 127.43ZM360.71 138.59C362.39 140.02 363.98 140.92 365.19 141.24C364.02 141.21 362.73 140.31 360.61 138.5C360.51 138.41 360.4 138.32 360.3 138.23C360.43 138.35 360.57 138.47 360.71 138.59ZM331.15 120.59C331.5 123.33 331.41 125.27 331.02 127.88C331.35 125.69 331.36 122.99 331.15 120.59ZM324.92 82.96C323.99 81.45 323.46 80.07 323.46 78.95C323.46 78.92 323.46 78.8799 323.46 78.8499C323.49 79.9699 324.02 81.4 324.92 82.96ZM328.96 73.45C329.01 73.45 329.05 73.45 329.1 73.45C329.53 73.45 330.48 73.95 331.73 74.8C330.51 74.02 329.49 73.49 328.96 73.45ZM285.23 160.71C283.97 161.1 282.75 161.26 281.46 161.26C282.79 161.21 284.04 161.03 285.23 160.71ZM358.2 132.95C358.48 132.34 358.94 131.71 359.58 131.02C359.57 131.04 359.55 131.06 359.53 131.08C358.96 131.81 358.52 132.41 358.2 132.95ZM366.55 102.62L366.34 103.24C366.34 103.18 366.34 103.13 366.34 103.08C366.36 102.83 366.51 102.47 366.76 102.04C366.69 102.22 366.62 102.42 366.55 102.62ZM308.18 104.78C309.57 106.24 310.84 107.6 311.97 108.88C310.82 107.6 309.53 106.21 308.18 104.78Z" fill="#AE8E5E"/>
<path d="M304.63 182.66C304.8 180.89 305.15 179.18 305.7 177.67C306.86 174.44 306.78 174.11 304.2 172.06C301.28 169.73 300.74 167.57 302.6 165.71C303.46 164.85 303.21 164.7 301.59 165.13C301.25 165.22 300.91 165.35 300.58 165.52C303.32 162.42 306.98 158.67 311.86 153.77C327.09 138.46 328.28 137.5 333.89 135.9C341.1 133.84 348.68 134.41 355.04 137.49C360.46 140.11 369.97 148.61 372.1 152.73C373.54 155.5 373.51 155.91 371.7 158.33C368.5 162.62 365.62 161.78 357.65 154.27C352.07 149 351.18 147.81 353.45 148.6C355.03 149.15 356.98 150.59 357.77 151.8C359.89 155.03 367.16 159.78 368.93 159.1C369.85 158.75 370.46 157.27 370.46 155.38C370.46 152.89 369.39 151.26 365.21 147.38C362.32 144.7 358.72 141.99 357.21 141.36C355.7 140.73 354.46 139.85 354.46 139.41C354.46 138.36 349.16 136.78 343.23 136.06C337.01 135.31 333.17 137.5 323.71 147.19C311.88 159.3 314.41 159.94 329.91 148.75C335.87 144.44 337.87 143.68 338.89 145.33C339.19 145.82 337.98 146.81 336.2 147.54C332.13 149.2 311.14 169.44 307.32 175.4C305.92 177.57 305.01 180.08 304.63 182.66ZM243.14 98.64C245.07 96.63 247.29 94.38 249.85 91.81C266.81 74.81 269.82 72.99 280.96 72.97C288.04 72.95 289.55 73.29 294.16 75.95C299.23 78.88 321.29 99.45 319.36 99.45C318.82 99.45 314.37 95.4 309.46 90.45C304.55 85.5 300.14 81.45 299.65 81.45C299.17 81.45 297.95 80.5499 296.95 79.4399C294.15 76.3499 282.98 73.2499 277.56 74.0599C272.96 74.7499 266.24 78.9599 261.4 84.1899C257.04 88.8999 252.76 94.85 252.02 97.21C251.63 98.46 250.9 99.2199 250.39 98.9099C249.88 98.5899 249.46 98.78 249.46 99.33C249.46 101.28 251.32 101.45 251.92 99.5599C252.26 98.5099 253.63 97.3699 254.97 97.0399C256.31 96.6999 259.05 94.64 261.07 92.46C263.09 90.28 265.69 88.2099 266.85 87.8499C268.01 87.4899 269.71 86.41 270.63 85.45C273.07 82.9 282.55 81.8999 286.15 83.8199C288.88 85.2699 288.79 85.3 283.4 84.76C275.64 83.99 272.86 85.68 258.41 99.95C245.46 112.73 242.46 117.1 242.46 123.18C242.46 125.81 242.97 127.97 244.76 130.78C244.24 130.09 243.88 129.55 243.73 129.2C242.82 127.14 241.71 125.45 241.27 125.45C240.82 125.45 240.46 124.33 240.46 122.95C240.46 121.57 240.83 120.45 241.27 120.45C242.02 120.45 245.46 114.16 245.46 112.79C245.46 112.47 244.72 112.82 243.81 113.58C242.9 114.33 242 114.84 241.81 114.7C240.8 113.98 239.46 114.62 239.46 115.83C239.46 116.59 238.82 117.74 238.04 118.38C236.92 119.31 236.42 119.21 235.69 117.9C234.51 115.8 236.72 109.13 240.04 104.77C241.37 103.02 242.46 101.1 242.46 100.52C242.46 99.9301 242.91 99.45 243.46 99.45C244.01 99.45 244.44 98.89 244.42 98.2C244.4 97.78 243.91 98 243.14 98.64ZM279.28 161.12C286.32 161.94 290.06 159.55 304.18 145.23C324.69 124.42 324.66 121.26 303.69 100.2C296.7 93.19 291.49 87.45 292.09 87.45C294.16 87.45 318.39 112.34 319.94 116.06C321.74 120.36 321.92 127.7 320.31 130.77C319.68 131.97 318.1 134.23 316.8 135.78C313.92 139.26 314.52 140.58 318.46 139.45C320.1 138.98 321.62 138.91 321.86 139.28C322.09 139.66 315.35 147.03 306.89 155.66C300.28 162.39 296.02 166.54 293.03 169.05C293.12 168.59 293.49 167.81 294.06 166.94C295.37 164.94 295.45 164.15 294.46 162.96C293.79 162.14 292.72 161.79 292.1 162.17C290.05 163.43 294.68 157.14 297.61 154.67C299.18 153.35 300.46 151.54 300.46 150.65C300.46 149.57 298.87 150.57 295.71 153.63C289.06 160.07 285.24 161.82 279.28 161.12ZM365.14 223.87C366.52 221.6 365.07 221 361.29 222.88C358.91 224.07 358.01 224.52 357.67 224.26C357.46 224.09 357.46 223.67 357.46 222.98C357.46 221.63 358.92 218.69 363.08 211.64C364 210.08 364.1 209.59 363.32 210.46C360.19 213.95 350.66 221.42 348.1 222.4C347.31 222.7 346.5 222.93 345.68 223.1C350.37 221.73 355.78 217.24 365.29 208.04C372.45 201.12 378.92 195.45 379.66 195.45C382.38 195.45 385.46 198.55 385.46 201.27C385.46 203.42 382.71 206.7 372.21 217.12C369.78 219.52 367.38 221.82 365.14 223.87ZM331.77 90.9001C327.05 86.9401 323.46 81.6901 323.46 78.7401C323.46 76.3501 326.44 73.45 328.9 73.45C330.83 73.45 340.87 81.3699 340.03 82.2199C339.74 82.4999 337.47 81.06 334.98 79.02C330.26 75.15 327.91 74.7799 326.12 77.6299C324.67 79.9299 327.78 85.8699 332.95 90.6599C338.04 95.3599 337.28 95.5201 331.77 90.9001ZM326.31 135.97C325.97 135.63 326.58 133.5 327.68 131.24C329.31 127.86 329.54 126.02 328.98 120.79C328.54 116.71 328.66 114.45 329.32 114.45C330.77 114.45 331.81 122.65 331.02 127.91C330.36 132.3 327.52 137.17 326.31 135.97ZM399.38 157.5C394.55 154.28 380.42 140.44 381.99 140.47C383.56 140.49 385.08 141.79 386.35 144.2C387 145.44 388.02 146.45 388.62 146.45C389.23 146.45 391.64 148.36 393.98 150.7C396.32 153.04 399.75 156.17 401.6 157.67C406.04 161.27 404.9 161.18 399.38 157.5ZM379.21 205.46C383.13 203.07 383.52 200.45 379.96 200.45C376.28 200.45 372.21 204.87 374.13 206.78C375.11 207.77 375.65 207.63 379.21 205.46ZM360.71 138.59C356.89 135.32 356.78 134.59 359.53 131.08C362.45 127.37 363.73 127.81 361.8 131.86C359.4 136.9 361.25 139.43 366.71 138.57C367.12 138.5 367.46 139.12 367.46 139.95C367.46 142.29 364.28 141.65 360.71 138.59ZM327.58 95.99C329.95 93.52 330.45 93.38 332.58 94.54L334.96 95.83L331.96 96.52C330.31 96.89 328.06 97.55 326.96 97.96C325.29 98.6 325.39 98.27 327.58 95.99ZM332.46 106.23C332.46 105.37 333.14 104.4 333.98 104.08C334.81 103.76 335.93 102.34 336.47 100.92C337.01 99.49 337.91 98.61 338.46 98.95C339.75 99.75 338.45 102.2 335.05 105.37C333.06 107.23 332.46 107.43 332.46 106.23ZM366.55 102.62C367.38 100.23 368.01 99.6 368.8 100.39C369.58 101.17 369.25 102.1 367.64 103.71L365.39 105.95L366.55 102.62ZM288.46 164.45C288.46 165 287.76 165.45 286.9 165.45C286.04 165.45 285.62 165 285.96 164.45C286.3 163.9 287 163.45 287.52 163.45C288.04 163.45 288.46 163.9 288.46 164.45ZM289 171.89C288.54 172.12 288.12 172.28 287.73 172.39C284.19 173.38 279.28 173.58 275.61 173C279.39 173.42 285.38 172.92 289 171.89ZM294.83 173.31C293.37 176.97 292.46 181.43 292.47 185.83C292.46 180.55 292.78 177.15 294.83 173.31ZM347.9 234.5C350.83 233.78 353.78 232.66 356.47 231.21C355.65 231.81 354.98 232.24 354.49 232.49C352.78 233.34 350.42 234.03 347.9 234.5ZM261.24 148.82C268.69 156.24 271.83 158.97 274.92 160.17C273.76 159.8 272.76 159.38 272.19 158.99C270.21 157.6 265.91 153.54 261.24 148.82Z" fill="#B2A082"/>
<path d="M335.46 234.57C328.16 232.17 323.02 228.29 310.67 215.87C295.32 200.42 292.49 195.73 292.47 185.83C292.45 176.24 296.8 166.38 301.59 165.13C303.21 164.7 303.46 164.85 302.6 165.71C300.74 167.57 301.28 169.73 304.2 172.06C306.78 174.11 306.86 174.44 305.7 177.67C304.01 182.33 304.14 188.98 306 192.89C308.18 197.48 331.32 220.08 335.74 221.92C340.02 223.71 344.22 223.87 348.1 222.4C350.66 221.42 360.19 213.95 363.32 210.46C364.1 209.59 364 210.08 363.08 211.64C358.92 218.69 357.46 221.63 357.46 222.98C357.46 223.67 357.46 224.09 357.67 224.26C358.01 224.52 358.91 224.07 361.29 222.88C366.13 220.47 367.15 222.14 363.3 226.15C356.55 233.18 343.35 237.17 335.46 234.57ZM273.46 172.57C266.95 170.43 261.98 166.65 249.96 154.71C233.57 138.43 231.03 134.16 231 122.95C230.99 116.62 231.43 114.12 233.15 110.95C235.74 106.17 244.35 96.42 244.42 98.2C244.44 98.89 244.01 99.45 243.46 99.45C242.91 99.45 242.46 99.9301 242.46 100.52C242.46 101.1 241.37 103.02 240.04 104.77C236.72 109.13 234.51 115.8 235.69 117.9C236.42 119.21 236.92 119.31 238.04 118.38C238.82 117.74 239.46 116.59 239.46 115.83C239.46 114.62 240.8 113.98 241.81 114.7C242 114.84 242.9 114.33 243.81 113.58C244.72 112.82 245.46 112.47 245.46 112.79C245.46 114.16 242.02 120.45 241.27 120.45C240.83 120.45 240.46 121.57 240.46 122.95C240.46 124.33 240.82 125.45 241.27 125.45C241.71 125.45 242.82 127.14 243.73 129.2C245.25 132.64 266.9 155.3 272.19 158.99C273.42 159.84 276.6 160.8 279.26 161.11C285.23 161.82 289.06 160.08 295.71 153.63C298.87 150.57 300.46 149.57 300.46 150.65C300.46 151.54 299.18 153.35 297.61 154.67C294.68 157.14 290.05 163.43 292.1 162.17C292.72 161.79 293.79 162.14 294.46 162.96C295.45 164.15 295.37 164.94 294.06 166.94C293.15 168.32 292.76 169.47 293.19 169.49C293.61 169.51 292.64 170.25 291.02 171.12C287.67 172.93 277.19 173.8 273.46 172.57ZM261.01 131.32C260.29 128.15 264.64 109.22 266.22 108.7C266.95 108.45 267.46 109.16 267.46 110.44C267.46 112.6 262.62 132.62 261.93 133.31C261.72 133.52 261.31 132.62 261.01 131.32ZM253.46 125.89C253.46 124.51 253.95 122.12 254.57 119.97C254.59 120.39 254.91 120.47 255.55 120.26C257.2 119.71 258.07 115.51 256.56 115.45C256.57 115.45 256.57 115.45 256.58 115.45C257.71 115.45 257.69 116.28 256.38 122.4C256.07 123.82 255.69 125.02 255.3 125.9C255.12 125.63 254.81 125.45 254.46 125.45C253.96 125.45 253.54 125.82 253.47 126.31C253.46 126.18 253.46 126.04 253.46 125.89ZM288.46 164.45C288.46 163.9 288.04 163.45 287.52 163.45C287 163.45 286.3 163.9 285.96 164.45C285.62 165 286.04 165.45 286.9 165.45C287.76 165.45 288.46 165 288.46 164.45ZM254.33 127.44C253.94 127.76 253.64 127.58 253.51 126.78C253.64 127.13 253.95 127.39 254.33 127.44Z" fill="#C4B392"/>
<path d="M254.8 119C255.16 118.06 255.46 116.87 255.46 116.37C255.46 115.86 255.94 115.45 256.53 115.45C258.08 115.45 257.22 119.71 255.55 120.26C254.56 120.58 254.34 120.21 254.8 119ZM253.46 126.45C253.46 125.9 253.91 125.45 254.46 125.45C255.01 125.45 255.46 125.9 255.46 126.45C255.46 127 255.01 127.45 254.46 127.45C253.91 127.45 253.46 127 253.46 126.45Z" fill="#D9C9AE"/>
</g>
</g>
</svg>